<?xml version="1.0" encoding="UTF-8"?>
<!DOCTYPE svg PUBLIC "-//W3C//DTD SVG 1.1//EN" "http://www.w3.org/Graphics/SVG/1.1/DTD/svg11.dtd">
<svg version="1.2" width="85.22mm" height="59.38mm" viewBox="5543 8322 8522 5938" preserveAspectRatio="xMidYMid" fill-rule="evenodd" stroke-width="28.222" stroke-linejoin="round" xmlns="http://www.w3.org/2000/svg" xmlns:ooo="http://xml.openoffice.org/svg/export" xmlns:xlink="http://www.w3.org/1999/xlink" xmlns:presentation="http://sun.com/xmlns/staroffice/presentation" xmlns:smil="http://www.w3.org/2001/SMIL20/" xmlns:anim="urn:oasis:names:tc:opendocument:xmlns:animation:1.0" xmlns:svg="urn:oasis:names:tc:opendocument:xmlns:svg-compatible:1.0" xml:space="preserve">
 <defs class="EmbeddedBulletChars">
  <g id="bullet-char-template-57356" transform="scale(0.00048828125,-0.00048828125)">
   <path d="M 580,1141 L 1163,571 580,0 -4,571 580,1141 Z"/>
  </g>
  <g id="bullet-char-template-57354" transform="scale(0.00048828125,-0.00048828125)">
   <path d="M 8,1128 L 1137,1128 1137,0 8,0 8,1128 Z"/>
  </g>
  <g id="bullet-char-template-10146" transform="scale(0.00048828125,-0.00048828125)">
   <path d="M 174,0 L 602,739 174,1481 1456,739 174,0 Z M 1358,739 L 309,1346 659,739 1358,739 Z"/>
  </g>
  <g id="bullet-char-template-10132" transform="scale(0.00048828125,-0.00048828125)">
   <path d="M 2015,739 L 1276,0 717,0 1260,543 174,543 174,936 1260,936 717,1481 1274,1481 2015,739 Z"/>
  </g>
  <g id="bullet-char-template-10007" transform="scale(0.00048828125,-0.00048828125)">
   <path d="M 0,-2 C -7,14 -16,27 -25,37 L 356,567 C 262,823 215,952 215,954 215,979 228,992 255,992 264,992 276,990 289,987 310,991 331,999 354,1012 L 381,999 492,748 772,1049 836,1024 860,1049 C 881,1039 901,1025 922,1006 886,937 835,863 770,784 769,783 710,716 594,584 L 774,223 C 774,196 753,168 711,139 L 727,119 C 717,90 699,76 672,76 641,76 570,178 457,381 L 164,-76 C 142,-110 111,-127 72,-127 30,-127 9,-110 8,-76 1,-67 -2,-52 -2,-32 -2,-23 -1,-13 0,-2 Z"/>
  </g>
  <g id="bullet-char-template-10004" transform="scale(0.00048828125,-0.00048828125)">
   <path d="M 285,-33 C 182,-33 111,30 74,156 52,228 41,333 41,471 41,549 55,616 82,672 116,743 169,778 240,778 293,778 328,747 346,684 L 369,508 C 377,444 397,411 428,410 L 1163,1116 C 1174,1127 1196,1133 1229,1133 1271,1133 1292,1118 1292,1087 L 1292,965 C 1292,929 1282,901 1262,881 L 442,47 C 390,-6 338,-33 285,-33 Z"/>
  </g>
  <g id="bullet-char-template-9679" transform="scale(0.00048828125,-0.00048828125)">
   <path d="M 813,0 C 632,0 489,54 383,161 276,268 223,411 223,592 223,773 276,916 383,1023 489,1130 632,1184 813,1184 992,1184 1136,1130 1245,1023 1353,916 1407,772 1407,592 1407,412 1353,268 1245,161 1136,54 992,0 813,0 Z"/>
  </g>
  <g id="bullet-char-template-8226" transform="scale(0.00048828125,-0.00048828125)">
   <path d="M 346,457 C 273,457 209,483 155,535 101,586 74,649 74,723 74,796 101,859 155,911 209,963 273,989 346,989 419,989 480,963 531,910 582,859 608,796 608,723 608,648 583,586 532,535 482,483 420,457 346,457 Z"/>
  </g>
  <g id="bullet-char-template-8211" transform="scale(0.00048828125,-0.00048828125)">
   <path d="M -4,459 L 1135,459 1135,606 -4,606 -4,459 Z"/>
  </g>
  <g id="bullet-char-template-61548" transform="scale(0.00048828125,-0.00048828125)">
   <path d="M 173,740 C 173,903 231,1043 346,1159 462,1274 601,1332 765,1332 928,1332 1067,1274 1183,1159 1299,1043 1357,903 1357,740 1357,577 1299,437 1183,322 1067,206 928,148 765,148 601,148 462,206 346,322 231,437 173,577 173,740 Z"/>
  </g>
 </defs>
 <g class="Page">
  <g class="Group">
   <g class="com.sun.star.drawing.ClosedBezierShape">
    <g id="id3">
     <rect class="BoundingBox" stroke="none" fill="none" x="5543" y="10721" width="3828" height="3539"/>
     <g>
      <defs>
       <linearGradient id="gradient1" x1="6213" y1="10336" x2="8700" y2="14645" gradientUnits="userSpaceOnUse">
        <stop offset="0" style="stop-color:rgb(0,51,102)"/>
        <stop offset="1" style="stop-color:rgb(0,102,102)"/>
       </linearGradient>
      </defs>
      <path style="fill:url(#gradient1)" d="M 8807,13435 L 8731,13538 8650,13634 8565,13724 8476,13807 8382,13884 8284,13954 8182,14018 8075,14075 7967,14124 7861,14166 7756,14200 7653,14227 7552,14245 7452,14256 7354,14259 7258,14254 7165,14240 7120,14231 7076,14219 7034,14205 6993,14189 6952,14170 6914,14150 6876,14127 6839,14103 6804,14076 6770,14047 6737,14016 6705,13983 6645,13910 6618,13870 6593,13828 6571,13783 6552,13736 6535,13687 6521,13634 6510,13580 6502,13523 6494,13401 6496,13270 6510,13128 6534,12977 6551,12878 6562,12784 6568,12693 6569,12606 6567,12583 6564,12558 6559,12530 6553,12499 6551,12492 6549,12484 6547,12478 6544,12472 6541,12466 6538,12461 6534,12457 6530,12453 6525,12450 6521,12448 6516,12446 6510,12444 6505,12444 6499,12443 6492,12444 6486,12445 6341,12474 6204,12515 6075,12568 6013,12599 5953,12632 5896,12669 5840,12709 5786,12751 5733,12797 5635,12897 5544,13009 5702,12528 5879,12058 5972,11978 6070,11903 6172,11833 6279,11767 6335,11737 6394,11709 6455,11684 6519,11661 6585,11640 6653,11622 6725,11607 6798,11593 6813,11592 6826,11592 6839,11593 6850,11595 6861,11597 6871,11601 6880,11606 6888,11612 6895,11619 6901,11626 6906,11635 6910,11645 6913,11655 6916,11667 6917,11680 6918,11693 6910,11810 6896,11934 6877,12066 6852,12206 6839,12277 6828,12347 6821,12417 6816,12485 6813,12552 6813,12618 6816,12683 6821,12748 6833,12845 6842,12891 6853,12934 6866,12974 6880,13013 6896,13049 6914,13082 6934,13113 6956,13142 6979,13169 7005,13193 7032,13215 7061,13235 7091,13252 7124,13267 7192,13292 7262,13311 7335,13325 7410,13333 7487,13336 7566,13333 7648,13325 7732,13312 7817,13294 7902,13273 7987,13248 8072,13219 8156,13187 8241,13152 8326,13113 8411,13070 8570,12982 8710,12895 8772,12852 8830,12810 8882,12767 8930,12725 8929,12655 8926,12578 8915,12403 8911,12357 8905,12314 8897,12274 8888,12237 8878,12203 8865,12172 8852,12144 8836,12119 8795,12128 8753,12135 8710,12140 8667,12144 8624,12146 8580,12147 8535,12146 8490,12143 8446,12138 8405,12131 8367,12121 8332,12108 8316,12101 8300,12093 8286,12084 8272,12075 8258,12065 8246,12055 8234,12044 8224,12032 8207,12012 8192,11992 8180,11970 8170,11949 8162,11926 8156,11903 8152,11878 8150,11854 8151,11828 8153,11802 8158,11775 8165,11747 8174,11719 8185,11689 8214,11629 8420,11187 8446,11131 8474,11076 8503,11022 8535,10971 8568,10921 8603,10873 8640,10826 8678,10781 8688,10770 8698,10761 8708,10753 8719,10745 8730,10739 8741,10733 8752,10729 8764,10726 8776,10724 8788,10722 8801,10722 8813,10723 8826,10724 8840,10727 8853,10731 8867,10735 8894,10746 8919,10757 8943,10769 8966,10781 8986,10794 9006,10807 9023,10821 9039,10835 9094,10895 9144,10958 9189,11023 9229,11091 9264,11162 9293,11236 9318,11312 9338,11392 9354,11474 9364,11558 9369,11646 9369,11736 9354,11925 9320,12125 9273,12326 9221,12515 9165,12695 9103,12864 9037,13022 8965,13170 8889,13308 8807,13435 Z"/>
     </g>
    </g>
   </g>
   <g class="com.sun.star.drawing.ClosedBezierShape">
    <g id="id4">
     <rect class="BoundingBox" stroke="none" fill="none" x="8956" y="10125" width="2575" height="2046"/>
     <g>
      <defs>
       <linearGradient id="gradient2" x1="9478" y1="9824" x2="11007" y2="12472" gradientUnits="userSpaceOnUse">
        <stop offset="0" style="stop-color:rgb(0,51,102)"/>
        <stop offset="1" style="stop-color:rgb(0,102,102)"/>
       </linearGradient>
      </defs>
      <path style="fill:url(#gradient2)" d="M 10249,11080 L 10501,10522 10542,10436 10583,10361 10625,10298 10646,10271 10667,10247 10689,10225 10710,10206 10731,10191 10753,10178 10774,10168 10796,10160 10817,10156 10839,10155 10872,10146 10911,10139 10955,10133 11005,10129 11123,10126 11265,10129 11302,10131 11336,10136 11367,10142 11396,10150 11422,10160 11445,10172 11465,10185 11482,10201 11497,10218 11509,10237 11518,10258 11525,10281 11528,10305 11529,10332 11527,10360 11523,10390 11484,10564 11445,10708 11425,10770 11406,10824 11386,10870 11366,10909 11322,10983 11268,11064 11205,11151 11133,11245 11080,11304 11022,11361 10957,11418 10885,11473 10807,11526 10723,11579 10633,11630 10536,11680 10369,11760 10205,11830 10042,11889 9881,11938 9220,12106 9088,12138 8956,12170 9104,11319 9401,11278 9690,11225 9973,11159 10249,11080 Z"/>
     </g>
    </g>
   </g>
   <g class="com.sun.star.drawing.ClosedBezierShape">
    <g id="id5">
     <rect class="BoundingBox" stroke="none" fill="none" x="10346" y="8322" width="3719" height="2550"/>
     <g>
      <defs>
       <linearGradient id="gradient3" x1="11189" y1="7835" x2="13222" y2="11357" gradientUnits="userSpaceOnUse">
        <stop offset="0" style="stop-color:rgb(0,51,102)"/>
        <stop offset="1" style="stop-color:rgb(0,102,102)"/>
       </linearGradient>
      </defs>
      <path style="fill:url(#gradient3)" d="M 12071,9626 L 12041,9602 12010,9581 11978,9563 11946,9550 11912,9539 11877,9532 11841,9529 11804,9529 11767,9532 11728,9539 11688,9550 11647,9564 11606,9582 11563,9603 11475,9655 11411,9702 11346,9753 11281,9810 11215,9873 11149,9941 11082,10014 10946,10178 10873,10270 10803,10362 10737,10455 10673,10549 10462,10871 10346,10871 10347,10869 10349,10867 10352,10861 10355,10853 10358,10843 10367,10818 10377,10786 10383,10766 10391,10743 10413,10688 10443,10620 10481,10539 10723,10057 10806,9908 10894,9760 10989,9612 11091,9465 11173,9356 11259,9251 11347,9151 11439,9056 11486,9010 11534,8968 11582,8929 11630,8893 11679,8860 11729,8829 11779,8802 11829,8778 11870,8761 11910,8746 11951,8734 11991,8724 12031,8717 12070,8712 12110,8710 12149,8710 12189,8712 12228,8718 12266,8725 12305,8735 12344,8748 12382,8763 12420,8781 12458,8801 12491,8822 12522,8844 12549,8867 12574,8891 12596,8916 12615,8941 12632,8967 12645,8994 12651,9008 12658,9020 12665,9032 12673,9042 12681,9052 12690,9062 12699,9070 12708,9077 12718,9084 12728,9090 12739,9095 12750,9099 12762,9102 12774,9105 12787,9106 12800,9107 12861,9107 12890,9104 12919,9100 12947,9095 12975,9088 13001,9079 13028,9069 13053,9058 13078,9045 13102,9031 13126,9015 13149,8997 13171,8978 13214,8936 13254,8891 13290,8846 13323,8800 13352,8754 13377,8708 13399,8662 13417,8615 13432,8569 13439,8558 13442,8554 13445,8551 13447,8548 13448,8547 13450,8546 13451,8546 13452,8545 13453,8545 13454,8545 13455,8545 13455,8546 13456,8546 13457,8547 13458,8548 13458,8549 13459,8552 13460,8556 13461,8561 13461,8572 13462,8613 13461,8655 13459,8698 13455,8742 13449,8786 13442,8831 13422,8923 13482,8911 13539,8896 13593,8878 13644,8857 13692,8833 13738,8806 13780,8777 13820,8744 13856,8709 13890,8671 13921,8630 13949,8586 13974,8539 13996,8490 14015,8437 14032,8382 14035,8359 14039,8342 14040,8335 14042,8330 14044,8326 14045,8325 14046,8324 14047,8323 14048,8322 14048,8322 14049,8322 14049,8322 14050,8322 14050,8322 14051,8323 14053,8323 14054,8325 14055,8326 14057,8330 14059,8335 14064,8349 14008,8754 13989,8852 13968,8946 13943,9038 13916,9126 13896,9182 13875,9236 13852,9286 13829,9334 13804,9380 13778,9423 13751,9463 13722,9501 13712,9513 13701,9526 13676,9552 13646,9578 13611,9605 13572,9631 13527,9657 13479,9684 13426,9710 13370,9736 13318,9758 13269,9777 13222,9792 13179,9804 13138,9813 13100,9818 13064,9820 13059,9820 13054,9819 13049,9818 13044,9817 13040,9816 13035,9814 13032,9812 13028,9809 13025,9807 13022,9803 13019,9800 13017,9796 13014,9792 13013,9788 13011,9783 13010,9778 13003,9778 12996,9779 12989,9781 12982,9783 12975,9785 12967,9789 12959,9793 12951,9797 12936,9806 12923,9813 12912,9819 12907,9821 12903,9823 12843,9855 12785,9882 12729,9905 12674,9922 12621,9935 12569,9942 12519,9945 12495,9944 12471,9942 12416,9937 12366,9927 12342,9921 12319,9913 12298,9904 12278,9895 12259,9884 12241,9872 12224,9859 12208,9845 12194,9830 12180,9814 12168,9796 12157,9778 12071,9626 Z"/>
     </g>
    </g>
   </g>
  </g>
 </g>
</svg>